<svg xmlns="http://www.w3.org/2000/svg" xmlns:xlink="http://www.w3.org/1999/xlink" version="1.1" x="0px" y="0px" viewBox="0 0 435 543.75" enable-background="new 0 0 435 435" xml:space="preserve"><path d="M221.3,75h-7.5c-1.2,0-2.2-1-2.2-2.2V2.2c0-1.2,1-2.2,2.2-2.2h7.5c1.2,0,2.2,1,2.2,2.2v70.5C223.5,74,222.5,75,221.3,75z"/><path d="M291.3,95.6l-5.1-3c-1.5-0.8-2-2.7-1.1-4.2l34.5-59.7c0.8-1.5,2.7-2,4.2-1.1l5.1,3c1.5,0.8,2,2.7,1.1,4.2l-34.5,59.7  C294.6,95.9,292.8,96.4,291.3,95.6z"/><path d="M342.4,148.8l-3-5.1c-0.8-1.5-0.3-3.3,1.1-4.2l59.7-34.5c1.5-0.8,3.3-0.3,4.2,1.1l3,5.1c0.8,1.5,0.3,3.3-1.1,4.2l-59.7,34.5  C345.1,150.8,343.2,150.3,342.4,148.8z"/><path d="M360,221.3v-7.5c0-1.2,1-2.2,2.2-2.2h70.5c1.2,0,2.2,1,2.2,2.2v7.5c0,1.2-1,2.2-2.2,2.2h-70.5  C361,223.5,360,222.5,360,221.3z"/><path d="M339.4,291.3l3-5.1c0.8-1.5,2.7-2,4.2-1.1l59.7,34.5c1.5,0.8,2,2.7,1.1,4.2l-3,5.1c-0.8,1.5-2.7,2-4.2,1.1l-59.7-34.5  C339.1,294.6,338.6,292.8,339.4,291.3z"/><path d="M286.2,342.4l5.1-3c1.5-0.8,3.3-0.3,4.2,1.1l34.5,59.7c0.8,1.5,0.3,3.3-1.1,4.2l-5.1,3c-1.5,0.8-3.3,0.3-4.2-1.1l-34.5-59.7  C284.2,345.1,284.7,343.2,286.2,342.4z"/><path d="M213.7,360h7.5c1.2,0,2.2,1,2.2,2.2v70.5c0,1.2-1,2.2-2.2,2.2h-7.5c-1.2,0-2.2-1-2.2-2.2v-70.5  C211.5,361,212.5,360,213.7,360z"/><path d="M143.7,339.4l5.1,3c1.5,0.8,2,2.7,1.1,4.2l-34.5,59.7c-0.8,1.5-2.7,2-4.2,1.1l-5.1-3c-1.5-0.8-2-2.7-1.1-4.2l34.5-59.7  C140.4,339.1,142.2,338.6,143.7,339.4z"/><path d="M92.6,286.2l3,5.1c0.8,1.5,0.3,3.3-1.1,4.2l-59.7,34.5c-1.5,0.8-3.3,0.3-4.2-1.1l-3-5.1c-0.8-1.5-0.3-3.3,1.1-4.2l59.7-34.5  C89.9,284.2,91.8,284.7,92.6,286.2z"/><path d="M75,213.7v7.5c0,1.2-1,2.2-2.2,2.2H2.2c-1.2,0-2.2-1-2.2-2.2l0-7.5c0-1.2,1-2.2,2.2-2.2h70.5C74,211.5,75,212.5,75,213.7z"/><path d="M95.6,143.7l-3,5.1c-0.8,1.5-2.7,2-4.2,1.1l-59.7-34.5c-1.5-0.8-2-2.7-1.1-4.2l3-5.1c0.8-1.5,2.7-2,4.2-1.1l59.7,34.5  C95.9,140.4,96.4,142.2,95.6,143.7z"/><text x="0" y="450" fill="#000000" font-size="5px" font-weight="bold" font-family="'Helvetica Neue', Helvetica, Arial-Unicode, Arial, Sans-serif">Created by Zach Bogard</text><text x="0" y="455" fill="#000000" font-size="5px" font-weight="bold" font-family="'Helvetica Neue', Helvetica, Arial-Unicode, Arial, Sans-serif">from the Noun Project</text></svg>