<?xml version="1.0" encoding="utf-8"?>
<!-- Generator: Adobe Illustrator 17.1.0, SVG Export Plug-In . SVG Version: 6.00 Build 0)  -->
<!DOCTYPE svg PUBLIC "-//W3C//DTD SVG 1.1//EN" "http://www.w3.org/Graphics/SVG/1.1/DTD/svg11.dtd">
<svg version="1.1" id="Camada_1" xmlns="http://www.w3.org/2000/svg" xmlns:xlink="http://www.w3.org/1999/xlink" x="0px" y="0px"
	 viewBox="0 0 200 200" enable-background="new 0 0 200 200" xml:space="preserve">
<line fill="none" stroke="#505050" stroke-width="5" stroke-linecap="round" stroke-miterlimit="10" x1="6.7" y1="194.3" x2="194.3" y2="5.7"/>
<g>
	<path fill="#505050" d="M157.7,95.3c8.5,0,13.5,2.7,13.5,11.5c0.1,0,0,10.2,0,10.2c0,0.1-15.8,0-25.8,0c-11.2,0-17.4,7.1-17.4,17.9
		v7.1c-0.1,9.2,7.3,16,17.3,15.8c12.3,0,25.9-9.8,26.1-9.8l1.6,8.6h5.7v-50.1c0-14.8-11.1-18.9-20.6-18.9H141l-7.7,7.7H157.7z
		 M171.3,142.5c-6.7,3.2-17,7.8-25,7.7c-6.1,0.1-10.5-4.3-10.5-8.9c0-0.1,0-5.9,0-6.1c-0.1-7.6,5-10.6,10.4-11l25.1-1.9V142.5z"/>
	<path fill="#505050" d="M25.9,126.1h20.4l8-8H25.9c-9.9,0-17.9-8-17.9-17.9V40.5c0-9.9,8.1-18,18-18h59.7c4.8,0,9.3,1.9,12.7,5.3
		c3.4,3.4,5.2,7.9,5.1,12.6v28.3l8-8V40.5c0.1-14.3-11.5-26-25.8-26H26c-14.4,0-26,11.6-26,26v59.7C0,114.6,11.6,126.1,25.9,126.1z"
		/>
	<path fill="#505050" d="M175.5,62.3h-9.3l-7.7,7.7h16.9c10.2,0,16.2,6.5,16.2,17.7v69c0,10.7-4.2,16.2-16.2,16.2h-45.7
		c-6.7,0-15-2.8-15-16.2v-42.8l-7.7,7.7v35c0,15.6,8.9,24,22.6,24h45.7c18.6,0,23.9-10.8,23.9-24v-69
		C199.4,70.8,189.8,62.6,175.5,62.3z"/>
	<path fill="#505050" d="M76.5,68.2c3,0,5.5-2.5,5.5-5.5s-2.5-5.5-5.5-5.5S71,59.7,71,62.7C71,65.8,73.5,68.2,76.5,68.2z"/>
	<path fill="#505050" d="M40.6,62.7c0-3-2.5-5.5-5.5-5.5s-5.5,2.5-5.5,5.5c0,3.1,2.5,5.5,5.5,5.5S40.6,65.7,40.6,62.7z"/>
	<path fill="#505050" d="M55.7,101.4c25.1,0,27.4-21,27.4-21h-6.8c0.2-0.1-5.6,14.2-20.5,14.2c-14.9,0-20.7-14.2-20.7-14.2h-6.8
		C28.3,80.4,30.6,101.4,55.7,101.4z"/>
</g>
</svg>
