<?xml version="1.0" encoding="utf-8"?>
<!-- Generator: Adobe Illustrator 17.1.0, SVG Export Plug-In . SVG Version: 6.00 Build 0)  -->
<!DOCTYPE svg PUBLIC "-//W3C//DTD SVG 1.1//EN" "http://www.w3.org/Graphics/SVG/1.1/DTD/svg11.dtd">
<svg version="1.1" id="Camada_1" xmlns="http://www.w3.org/2000/svg" xmlns:xlink="http://www.w3.org/1999/xlink" x="0px" y="0px"
	 viewBox="0 0 200 200" enable-background="new 0 0 200 200" xml:space="preserve">
<path fill="#FF0000" d="M35.1,68.2c3,0,5.5-2.5,5.5-5.5s-2.5-5.5-5.5-5.5c-3,0-5.5,2.5-5.5,5.5S32.1,68.2,35.1,68.2z"/>
<path fill="#FF0000" d="M76.5,68.2c3,0,5.5-2.5,5.5-5.5s-2.5-5.5-5.5-5.5c-3,0-5.5,2.5-5.5,5.5S73.5,68.2,76.5,68.2z"/>
<path fill="#FF0000" d="M55.8,80.3c-25.1,0-27.4,21-27.4,21h6.8c0,0,5.8-14.2,20.7-14.2c14.9,0,20.7,14.2,20.7,14.2h6.8
	C83.2,101.3,81,80.3,55.8,80.3z"/>
<line fill="none" stroke="#FF0000" stroke-width="5" stroke-linecap="round" stroke-miterlimit="10" x1="6.7" y1="194.3" x2="194.3" y2="5.7"/>
<g>
	<path fill="#FF0000" d="M25.9,126.1h20.4l8-8H25.9c-9.9,0-17.9-8-17.9-17.9V40.5c0-9.9,8.1-18,18-18h59.7c4.8,0,9.3,1.9,12.7,5.3
		c3.4,3.4,5.2,7.9,5.1,12.6l0,0.1v28.1l8-8V40.5c0.1-14.4-11.5-26-25.9-26H26c-14.4,0-26,11.6-26,26v59.7
		C0,114.5,11.6,126.1,25.9,126.1z"/>
	<path fill="#FF0000" d="M137.7,101.7l12.8,22.8l-19.3,32.8h7.6l15.4-26.1l14.6,26.1h7l-17.7-32.8L180.9,86h-7.6l-18.7,31.8
		l-11.9-22.1c0,0-1.7-2.5-5.1-4.5l-5.5,5.5C135.8,98.4,137.7,101.7,137.7,101.7z"/>
	<path fill="#FF0000" d="M176.1,62.8h-10.4l-7.6,7.7h18c10.2,0,16.2,6.5,16.2,17.7v69c0,10.7-4.2,16.2-16.2,16.2h-45.7
		c-6.7,0-15-2.8-15-16.2v-43.8l-7.7,7.7v36.1c0,15.6,8.9,24,22.6,24h45.7c18.6,0,23.9-10.8,23.9-24v-69
		C200,71.3,190.4,63,176.1,62.8z"/>
</g>
</svg>
