<?xml version="1.0" encoding="utf-8"?>
<!-- Generator: Adobe Illustrator 17.1.0, SVG Export Plug-In . SVG Version: 6.00 Build 0)  -->
<!DOCTYPE svg PUBLIC "-//W3C//DTD SVG 1.1//EN" "http://www.w3.org/Graphics/SVG/1.1/DTD/svg11.dtd">
<svg version="1.1" id="Camada_1" xmlns="http://www.w3.org/2000/svg" xmlns:xlink="http://www.w3.org/1999/xlink" x="0px" y="0px"
	 viewBox="0 0 200 200" enable-background="new 0 0 200 200" xml:space="preserve">
<path fill="#505050" d="M100,8.1c13.9,0,22.9,3,33.3,11.2c11,8.6,32.4,15.9,42.8,19v77.8l0,0.3l0,0.4c0.1,1.3,1.2,22.6-19.7,38
	c-19.8,14.6-46.6,30.3-56.5,35.9c-9.9-5.7-36.7-21.3-56.5-35.9c-20.9-15.4-19.8-36.7-19.7-38l0-0.3v-0.4v-78
	C34.4,34.7,56.1,27,66.5,19.4C77.5,11.3,87.2,8.1,100,8.1 M100,0.1c-15.2,0-26.4,4.3-38.3,12.9c-12.5,9.1-45.9,19.3-45.9,19.3v83.8
	c0,0-2.4,26.5,23,45.1c25.3,18.7,61.2,38.7,61.2,38.7s35.9-20,61.2-38.7c25.3-18.7,23-45.1,23-45.1V32.3c0,0-32.4-8.8-45.9-19.3
	C126.1,3.4,115.2,0.1,100,0.1L100,0.1z"/>
<path fill-rule="evenodd" clip-rule="evenodd" fill="#505050" d="M100,37.2c0,0-14.2,0-24,8.1c-9.7,8-28.8,12.1-28.8,12.1v52.6
	c0,0-1.5,16.6,14.4,28.3c15.9,11.7,38.4,24.3,38.4,24.3V37.2z"/>
</svg>
