<?xml version="1.0" encoding="utf-8"?>
<!-- Generator: Adobe Illustrator 17.1.0, SVG Export Plug-In . SVG Version: 6.00 Build 0)  -->
<!DOCTYPE svg PUBLIC "-//W3C//DTD SVG 1.1//EN" "http://www.w3.org/Graphics/SVG/1.1/DTD/svg11.dtd">
<svg version="1.1" id="Camada_1" xmlns="http://www.w3.org/2000/svg" xmlns:xlink="http://www.w3.org/1999/xlink" x="0px" y="0px"
	 viewBox="0 0 200 200" enable-background="new 0 0 200 200" xml:space="preserve">
<g>
	<path fill="#FF0000" d="M69.3,49.6L100,76V37.2c0,0-14.2,0-24,8.1C74,46.9,71.7,48.4,69.3,49.6z"/>
	<path fill="#FF0000" d="M47.1,110.1c0,0-1,11.4,7.7,22l45.2-26.7V100L47.1,84.3V110.1z"/>
	<path fill="#FF0000" d="M23.8,116.8l0-0.3V44.5l-8-3.5v75.2c0,0-0.6,7.3,2.4,16.9l7.3-3.3C23.5,122.7,23.8,117.4,23.8,116.8z"/>
	<path fill="#FF0000" d="M76.9,13c7.2-3.5,14.4-5,23.1-5c13.9,0,22.9,3,33.3,11.2c5.3,4.2,13.1,8,20.9,11.2l4.3-6.9
		c-7.6-3.1-15.2-6.8-20.3-10.7C126.1,3.4,115.2,0.1,100,0.1C88.1,0.1,78.6,2.7,69.3,8L76.9,13z"/>
	<path fill="#FF0000" d="M71.2,16.2L64.5,11c-0.9,0.6-1.8,1.3-2.8,1.9C54,18.6,38.2,24.7,27.3,28.5V37c11.3-3.8,29.8-10.8,39.1-17.6
		C68.1,18.2,69.6,17.2,71.2,16.2z"/>
	<path fill="#FF0000" d="M184.2,32.3c0,0-7.1-1.9-16-5l-6.9,6c5.7,2.1,11.1,3.9,14.9,5v77.8l0,0.3l0,0.4c0.1,1,0.8,14.9-9.7,28.3
		l4.1,7.6c15.3-17.3,13.6-36.6,13.6-36.6V32.3z"/>
	<path fill="#FF0000" d="M42.8,51.5v17.9L95.7,94c0,0-22.2-31.2-34.3-48.6C52.3,49.4,42.8,51.5,42.8,51.5z"/>
	<path fill="#FF0000" d="M144.9,163c-17.6,11.9-36.8,23.2-44.9,27.8c-9.9-5.7-36.7-21.3-56.5-35.9c-8.8-6.5-13.7-14.1-16.5-20.7
		l-4.3,9.4c3.4,6,8.5,12.2,16,17.7c25.3,18.7,61.2,38.7,61.2,38.7s21.9-12.2,43.6-26.5L144.9,163z"/>
	<path fill="#FF0000" d="M95.7,115.4l-28.2,36.8c13.9,9.2,28.2,17.2,28.2,17.2V115.4z"/>
</g>
</svg>
